<svg xmlns="http://www.w3.org/2000/svg" xmlns:xlink="http://www.w3.org/1999/xlink" width="50" zoomAndPan="magnify" viewBox="0 0 37.5 37.499999" height="50" preserveAspectRatio="xMidYMid meet" version="1.0"><defs><g/><clipPath id="7b3b32a413"><path d="M 0 0 L 37.007812 0 L 37.007812 37.007812 L 0 37.007812 Z M 0 0 " clip-rule="nonzero"/></clipPath></defs><g clip-path="url(#7b3b32a413)"><path fill="#ffffff" d="M 0 0 L 37.007812 0 L 37.007812 37.007812 L 0 37.007812 Z M 0 0 " fill-opacity="1" fill-rule="nonzero"/><path fill="#ffffff" d="M 0 0 L 37.007812 0 L 37.007812 37.007812 L 0 37.007812 Z M 0 0 " fill-opacity="1" fill-rule="nonzero"/><path stroke-linecap="butt" transform="matrix(0.654914, 0, 0, 0.654914, -13.746488, -9.364361)" fill="none" stroke-linejoin="miter" d="M 30.449502 64.001001 L 31.982385 56.426054 L 49.017068 40.554453 L 38.931056 25.458241 L 40.469904 18.133804 L 68.849113 18.133804 L 67.190976 26.096445 L 49.655272 26.096445 L 59.616029 41.198622 L 43.935293 55.97275 L 62.628114 55.97275 L 60.964011 64.001001 Z M 30.449502 64.001001 " stroke="#000000" stroke-width="8.993474" stroke-opacity="1" stroke-miterlimit="4"/></g><g fill="#ffffff" fill-opacity="1"><g transform="translate(7.077726, 32.550126)"><g><path d="M -0.890625 0 L 0.125 -4.96875 L 11.265625 -15.359375 L 4.671875 -25.234375 L 5.671875 -30.03125 L 24.265625 -30.03125 L 23.171875 -24.8125 L 11.6875 -24.8125 L 18.21875 -14.9375 L 7.953125 -5.265625 L 20.1875 -5.265625 L 19.09375 0 Z M -0.890625 0 "/></g></g></g></svg>