<svg xmlns="http://www.w3.org/2000/svg" xmlns:xlink="http://www.w3.org/1999/xlink" width="300" zoomAndPan="magnify" viewBox="0 0 224.87999 74.999997" height="100" preserveAspectRatio="xMidYMid meet" version="1.0"><defs><g/><clipPath id="8e6bda1f5e"><path d="M 0 0.0195312 L 66 0.0195312 L 66 74.980469 L 0 74.980469 Z M 0 0.0195312 " clip-rule="nonzero"/></clipPath><clipPath id="255409ecbc"><path d="M 98 0.0195312 L 224.761719 0.0195312 L 224.761719 74.980469 L 98 74.980469 Z M 98 0.0195312 " clip-rule="nonzero"/></clipPath></defs><g clip-path="url(#8e6bda1f5e)"><path stroke-linecap="butt" transform="matrix(0.646211, 0, 0, 0.646211, 8.789276, 8.701011)" fill="none" stroke-linejoin="miter" d="M -1.348333 64.000132 L 0.18706 56.425931 L 17.215412 40.558191 L 7.132596 25.458148 L 8.674034 18.131786 L 37.05462 18.131786 L 35.392285 26.098902 L 17.862211 26.098902 L 27.818084 41.198946 L 12.137735 55.972567 L 30.828421 55.972567 L 29.166086 64.000132 Z M -1.348333 64.000132 " stroke="#000000" stroke-width="8.993474" stroke-opacity="1" stroke-miterlimit="4"/></g><g fill="#ffffff" fill-opacity="1"><g transform="translate(8.789276, 50.058508)"><g><path d="M -0.875 0 L 0.125 -4.890625 L 11.125 -15.140625 L 4.609375 -24.90625 L 5.609375 -29.625 L 23.953125 -29.625 L 22.859375 -24.484375 L 11.53125 -24.484375 L 17.96875 -14.734375 L 7.84375 -5.1875 L 19.921875 -5.1875 L 18.84375 0 Z M -0.875 0 "/></g></g></g><g fill="#ffffff" fill-opacity="1"><g transform="translate(30.480269, 49.953614)"><g><path d="M 18.34375 -32.140625 C 21.695312 -32.140625 24.84375 -31.28125 27.78125 -29.5625 L 23.546875 -23.25 C 22.078125 -24.632812 20.382812 -25.328125 18.46875 -25.328125 C 17.476562 -25.328125 16.570312 -25.039062 15.75 -24.46875 C 14.9375 -23.90625 14.53125 -23.207031 14.53125 -22.375 C 14.53125 -21.769531 14.820312 -21.238281 15.40625 -20.78125 C 15.988281 -20.320312 17.050781 -19.867188 18.59375 -19.421875 C 20.695312 -18.785156 22.21875 -18.171875 23.15625 -17.578125 C 24.101562 -16.984375 24.835938 -16.25 25.359375 -15.375 C 25.890625 -14.507812 26.15625 -13.425781 26.15625 -12.125 C 26.15625 -10.238281 25.671875 -8.242188 24.703125 -6.140625 C 23.734375 -4.035156 22.144531 -2.359375 19.9375 -1.109375 C 17.738281 0.128906 15.132812 0.773438 12.125 0.828125 C 8.25 0.828125 4.757812 -0.359375 1.65625 -2.734375 L 6.1875 -9.296875 C 8.34375 -7.140625 10.570312 -6.0625 12.875 -6.0625 C 14.144531 -6.0625 15.210938 -6.390625 16.078125 -7.046875 C 16.953125 -7.710938 17.390625 -8.5625 17.390625 -9.59375 C 17.390625 -10.914062 16.0625 -11.9375 13.40625 -12.65625 C 10.195312 -13.539062 8.117188 -14.488281 7.171875 -15.5 C 6.234375 -16.507812 5.765625 -17.859375 5.765625 -19.546875 C 5.765625 -23.097656 6.972656 -26.082031 9.390625 -28.5 C 11.816406 -30.925781 14.800781 -32.140625 18.34375 -32.140625 Z M 18.34375 -32.140625 "/></g></g></g><g fill="#ffffff" fill-opacity="1"><g transform="translate(51.607369, 49.953614)"><g><path d="M 15.734375 -31.296875 L 10.796875 0 L 2.65625 0 L 7.59375 -31.296875 Z M 15.734375 -31.296875 "/></g></g></g><g fill="#ffffff" fill-opacity="1"><g transform="translate(60.655668, 49.953614)"><g><path d="M 27.6875 -20.34375 C 26.882812 -23.664062 24.851562 -25.328125 21.59375 -25.328125 C 19.875 -25.328125 18.257812 -24.765625 16.75 -23.640625 C 15.238281 -22.523438 14.039062 -21.046875 13.15625 -19.203125 C 12.269531 -17.359375 11.828125 -15.484375 11.828125 -13.578125 C 11.828125 -11.191406 12.445312 -9.269531 13.6875 -7.8125 C 14.9375 -6.363281 16.613281 -5.640625 18.71875 -5.640625 C 20.632812 -5.640625 22.238281 -6.125 23.53125 -7.09375 C 24.832031 -8.0625 25.691406 -9.390625 26.109375 -11.078125 L 19.46875 -11.078125 L 20.515625 -17.484375 L 36.65625 -17.484375 C 35.9375 -13.109375 34.722656 -9.65625 33.015625 -7.125 C 31.316406 -4.59375 29.160156 -2.597656 26.546875 -1.140625 C 23.929688 0.304688 20.953125 1.03125 17.609375 1.03125 C 13.285156 1.03125 9.816406 -0.179688 7.203125 -2.609375 C 4.585938 -5.046875 3.28125 -8.300781 3.28125 -12.375 C 3.28125 -15.945312 4.125 -19.265625 5.8125 -22.328125 C 7.5 -25.398438 9.863281 -27.835938 12.90625 -29.640625 C 15.957031 -31.441406 19.378906 -32.34375 23.171875 -32.34375 C 29.785156 -32.34375 34.03125 -29.421875 35.90625 -23.578125 Z M 27.6875 -20.34375 "/></g></g></g><g fill="#ffffff" fill-opacity="1"><g transform="translate(91.205071, 49.953614)"><g><path d="M 19.0625 -31.296875 L 22.796875 -14.578125 L 32.140625 -31.296875 L 40.234375 -31.296875 L 40.015625 0 L 31.890625 0 L 32.46875 -18.015625 L 32.375 -18.015625 L 22 0 L 18.765625 0 L 14.453125 -18.015625 L 14.359375 -18.015625 L 8.890625 0 L 0.78125 0 L 11.046875 -31.296875 Z M 19.0625 -31.296875 "/></g></g></g><g clip-path="url(#255409ecbc)"><path stroke-linecap="butt" transform="matrix(0.778351, 0, 0, 0.778351, 127.616021, 8.701009)" fill="none" stroke-linejoin="miter" d="M 49.43493 29.005338 C 49.43493 32.874696 48.315777 36.894612 46.077471 41.060069 C 43.839166 45.220507 40.672415 48.467556 36.587256 50.811253 C 32.497079 53.154949 28.105784 54.329307 23.408354 54.329307 C 17.757385 54.329307 13.170364 52.668143 9.647291 49.340796 C 6.134255 46.018468 4.372719 41.637211 4.372719 36.202043 C 4.372719 31.725431 5.557113 27.595105 7.915866 23.811064 C 10.284656 20.016985 13.506611 17.01083 17.576714 14.787581 C 21.646817 12.564331 25.847404 11.455215 30.178475 11.455215 C 33.636306 11.455215 36.86328 12.197971 39.869435 13.693521 C 42.870571 15.184052 45.214268 17.261761 46.900525 19.916613 C 48.591801 22.561427 49.43493 25.592675 49.43493 29.005338 Z M 25.009294 44.196708 C 27.433289 44.196708 29.661557 43.53425 31.704136 42.204315 C 33.751734 40.869361 35.377768 39.147974 36.587256 37.035134 C 37.791725 34.917275 38.39396 32.829528 38.39396 30.761856 C 38.39396 28.202358 37.430385 26.029295 35.493196 24.252703 C 33.556008 22.471092 31.237405 21.582795 28.527348 21.582795 C 26.434583 21.582795 24.356873 22.154918 22.289201 23.299164 C 20.231566 24.438392 18.570401 25.964053 17.305709 27.886185 C 16.046034 29.803299 15.413688 31.931195 15.413688 34.274892 C 15.413688 37.160599 16.312021 39.534408 18.098651 41.401335 C 19.895318 43.263244 22.198866 44.196708 25.009294 44.196708 Z M 59.512323 12.795187 L 65.333926 23.71571 L 74.548116 12.795187 L 87.089654 12.795187 L 68.952352 33.692731 L 65.916086 52.999372 L 55.462295 52.999372 L 58.498562 33.692731 L 46.985842 12.795187 Z M 98.707765 12.795187 C 102.045149 12.795187 105.041266 13.532925 107.691099 15.0084 C 110.34595 16.483875 112.428679 18.516417 113.939284 21.116063 C 115.449889 23.710691 116.202683 26.480971 116.202683 29.431921 C 116.202683 33.486968 115.108623 37.336251 112.925522 40.98479 C 110.737403 44.618272 107.776416 47.534092 104.04256 49.717193 C 100.308705 51.905312 96.419273 52.999372 92.364226 52.999372 L 77.48401 52.999372 L 83.837586 12.795187 Z M 89.317922 44.146522 L 91.350464 44.146522 C 95.586182 44.146522 98.953677 42.896885 101.452951 40.397611 C 103.962263 37.8883 105.216918 34.641251 105.216918 30.656465 C 105.216918 27.951427 104.368771 25.768327 102.677495 24.122218 C 100.991238 22.471092 98.481927 21.648037 95.139524 21.648037 L 92.8962 21.648037 Z M 89.317922 44.146522 " stroke="#000000" stroke-width="7.399995" stroke-opacity="1" stroke-miterlimit="4"/></g><g fill="#ffffff" fill-opacity="1"><g transform="translate(127.616021, 49.953614)"><g><path d="M 38.484375 -18.6875 C 38.484375 -15.664062 37.609375 -12.535156 35.859375 -9.296875 C 34.117188 -6.054688 31.65625 -3.523438 28.46875 -1.703125 C 25.289062 0.117188 21.875 1.03125 18.21875 1.03125 C 13.820312 1.03125 10.253906 -0.257812 7.515625 -2.84375 C 4.773438 -5.425781 3.40625 -8.835938 3.40625 -13.078125 C 3.40625 -16.566406 4.320312 -19.785156 6.15625 -22.734375 C 8 -25.679688 10.503906 -28.019531 13.671875 -29.75 C 16.847656 -31.476562 20.125 -32.34375 23.5 -32.34375 C 26.1875 -32.34375 28.695312 -31.757812 31.03125 -30.59375 C 33.375 -29.4375 35.203125 -27.828125 36.515625 -25.765625 C 37.828125 -23.703125 38.484375 -21.34375 38.484375 -18.6875 Z M 19.46875 -6.84375 C 21.351562 -6.84375 23.085938 -7.363281 24.671875 -8.40625 C 26.265625 -9.445312 27.53125 -10.789062 28.46875 -12.4375 C 29.414062 -14.082031 29.890625 -15.707031 29.890625 -17.3125 C 29.890625 -19.300781 29.132812 -20.988281 27.625 -22.375 C 26.113281 -23.757812 24.304688 -24.453125 22.203125 -24.453125 C 20.578125 -24.453125 18.960938 -24.007812 17.359375 -23.125 C 15.753906 -22.238281 14.457031 -21.046875 13.46875 -19.546875 C 12.488281 -18.054688 12 -16.398438 12 -14.578125 C 12 -12.328125 12.695312 -10.472656 14.09375 -9.015625 C 15.488281 -7.566406 17.28125 -6.84375 19.46875 -6.84375 Z M 19.46875 -6.84375 "/></g></g></g><g fill="#ffffff" fill-opacity="1"><g transform="translate(160.033286, 49.953614)"><g><path d="M 13.90625 -31.296875 L 18.4375 -22.796875 L 25.609375 -31.296875 L 35.375 -31.296875 L 21.25 -15.03125 L 18.890625 0 L 10.75 0 L 13.125 -15.03125 L 4.15625 -31.296875 Z M 13.90625 -31.296875 "/></g></g></g><g fill="#ffffff" fill-opacity="1"><g transform="translate(185.269676, 49.953614)"><g><path d="M 19.1875 -31.296875 C 21.78125 -31.296875 24.109375 -30.722656 26.171875 -29.578125 C 28.234375 -28.429688 29.851562 -26.847656 31.03125 -24.828125 C 32.207031 -22.804688 32.796875 -20.644531 32.796875 -18.34375 C 32.796875 -15.1875 31.941406 -12.191406 30.234375 -9.359375 C 28.535156 -6.523438 26.234375 -4.253906 23.328125 -2.546875 C 20.421875 -0.847656 17.390625 0 14.234375 0 L 2.65625 0 L 7.59375 -31.296875 Z M 11.875 -6.890625 L 13.453125 -6.890625 C 16.742188 -6.890625 19.363281 -7.863281 21.3125 -9.8125 C 23.269531 -11.769531 24.25 -14.296875 24.25 -17.390625 C 24.25 -19.492188 23.585938 -21.1875 22.265625 -22.46875 C 20.953125 -23.757812 19 -24.40625 16.40625 -24.40625 L 14.65625 -24.40625 Z M 11.875 -6.890625 "/></g></g></g></svg>